<?xml version="1.0" encoding="UTF-8" standalone="no"?>
<!-- Created with Inkscape (http://www.inkscape.org/) -->
<svg
   xmlns:dc="http://purl.org/dc/elements/1.1/"
   xmlns:cc="http://web.resource.org/cc/"
   xmlns:rdf="http://www.w3.org/1999/02/22-rdf-syntax-ns#"
   xmlns:svg="http://www.w3.org/2000/svg"
   xmlns="http://www.w3.org/2000/svg"
   xmlns:sodipodi="http://sodipodi.sourceforge.net/DTD/sodipodi-0.dtd"
   xmlns:inkscape="http://www.inkscape.org/namespaces/inkscape"
   id="svg2"
   sodipodi:version="0.32"
   inkscape:version="0.45.1"
   width="1108"
   height="1016"
   version="1.0"
   sodipodi:docbase="C:\Documents and Settings\Leylosss\Belgelerim"
   sodipodi:docname="Stork_silhouette.svg"
   inkscape:output_extension="org.inkscape.output.svg.inkscape">
  <metadata
     id="metadata7">
    <rdf:RDF>
      <cc:Work
         rdf:about="">
        <dc:format>image/svg+xml</dc:format>
        <dc:type
           rdf:resource="http://purl.org/dc/dcmitype/StillImage" />
      </cc:Work>
    </rdf:RDF>
  </metadata>
  <defs
     id="defs5" />
  <sodipodi:namedview
     inkscape:window-height="573"
     inkscape:window-width="744"
     inkscape:pageshadow="2"
     inkscape:pageopacity="0.0"
     guidetolerance="10.0"
     gridtolerance="10.0"
     objecttolerance="10.0"
     borderopacity="1.0"
     bordercolor="#666666"
     pagecolor="#ffffff"
     id="base"
     inkscape:zoom="0.37106299"
     inkscape:cx="554"
     inkscape:cy="508"
     inkscape:window-x="22"
     inkscape:window-y="29"
     inkscape:current-layer="svg2" />
  <path
     style="fill:#000000"
     d="M 495.36441,967.23469 C 490.90998,964.35282 482.45931,943.10395 477.07631,921.25 C 476.56828,919.1875 475.21828,914.05134 474.07631,909.83632 C 472.93434,905.62129 472,901.25496 472,900.13337 C 472,899.01177 471.59668,897.06043 471.10373,895.79705 C 470.61079,894.53367 469.69713,890.35 469.07338,886.5 C 467.60444,877.43317 466.37402,871.03678 464.55287,863 C 463.10964,856.63097 463.0916,856.83245 463.65758,873 C 464.68137,902.24546 464.00583,926.22425 462.01027,931.473 C 461.45462,932.93446 461,935.09236 461,936.26833 C 461,939.44777 454.9852,958.25418 453.38479,960.07874 C 452.62316,960.94705 452,962.1364 452,962.72175 C 452,964.40823 448.97342,965.11965 447.63776,963.74713 C 445.27868,961.32295 442.29279,953.76456 439.04671,942 C 438.36381,939.525 437.39893,936.71861 436.90254,935.76357 C 436.40614,934.80853 436,933.06074 436,931.87959 C 436,930.69844 435.58904,928.10483 435.08675,926.11602 C 434.58446,924.12721 433.66245,920.025 433.03785,917 C 432.41324,913.975 431.50428,909.7 431.01793,907.5 C 430.04113,903.08149 428.30093,893.42695 427.5031,888 C 426.581,881.72775 425.0625,870.51815 425.03088,869.75 C 425.01389,869.3375 424.61969,869 424.15488,869 C 423.69006,869 423.28244,874.5994 423.24906,881.4431 C 423.21567,888.28681 422.91301,894.33174 422.57646,894.87628 C 422.23991,895.42083 421.50053,898.03393 420.93339,900.68318 C 418.12349,913.80887 415.91799,920.05208 411.28335,928 C 408.21003,933.27042 403.67339,939 402.57365,939 C 400.3053,939 394.45516,921.89916 393.01821,911.06806 C 392.39302,906.35563 391.66931,901.15 391.40997,899.5 C 390.34892,892.74944 388.93652,878.66377 387.95058,865 C 387.37513,857.025 386.5405,846.675 386.09586,842 L 385.28741,833.5 L 385.04717,840.5 C 384.91504,844.35 384.82853,849.73021 384.85493,852.45602 C 384.88132,855.18184 384.43944,857.97051 383.87296,858.65308 C 383.30648,859.33564 382.96477,860.93043 383.11361,862.19705 C 383.39067,864.55475 381.50808,873.91309 380.03517,877.5 C 375.15388,889.38712 367.77526,899.50305 364.47155,898.83737 C 360.74057,898.0856 356.34614,886.56162 353.85635,871 C 351.38353,855.54443 350.89265,850.45303 350.09622,832 C 349.63334,821.275 349.17524,812.275 349.07823,812 C 348.98122,811.725 347.37724,816.08513 345.51383,821.68917 C 341.63187,833.36384 339.57268,837 336.84318,837 C 331.93589,837 324.84352,824.86089 321.94461,811.5 C 320.35986,804.196 318.37532,785.13728 318.71665,780.5 C 320.55893,755.47105 324.09731,731.9001 328.444,715.70121 C 329.2998,712.51188 330,708.19938 330,706.11788 C 330,704.03638 330.29928,702.03405 330.66507,701.66827 C 331.03085,701.30248 331.45392,699.76498 331.60522,698.2516 C 332.3769,690.53279 334.28863,679.29681 335.09114,677.76357 C 335.59101,676.80853 336,674.47259 336,672.57259 C 336,670.67258 336.45,668.83992 337,668.5 C 337.55,668.16008 338,666.55852 338,664.94098 C 338,663.32344 338.34768,662 338.77261,662 C 339.19755,662 340.11597,659.4125 340.81354,656.25 C 341.51111,653.0875 342.57534,648.25 343.17848,645.5 C 343.78163,642.75 344.92562,639.00315 345.7207,637.17366 C 352.19276,622.28126 353.29622,617.73938 353.65887,604.5 C 353.85472,597.35 354.47586,588.575 355.03917,585 C 356.53334,575.51756 358.08367,567.78282 358.94772,565.5 C 359.36407,564.4 360.26783,560.35 360.95609,556.5 C 361.64435,552.65 362.61079,548.46633 363.10373,547.20295 C 363.59668,545.93957 364,544.25243 364,543.45374 C 364,542.21501 369.13943,530.99412 372.68125,524.5 C 373.28118,523.4 374.81077,520.11503 376.08034,517.20007 C 378.1679,512.40698 384.88814,505 387.14927,505 C 389.3332,505 426,469.94461 426,467.85666 C 426,467.3855 426.36337,467 426.8075,467 C 427.77082,467 434,458.3474 434,457.00931 C 434,455.19913 420.02531,452.38649 402,450.56877 C 388.53383,449.21081 375.5834,448.70506 349,448.49895 C 333.325,448.37742 315.55,447.76388 309.5,447.13552 C 303.45,446.50717 296.025,445.80223 293,445.56899 C 285.88458,445.02036 281.67082,444.40661 263.5,441.27222 C 252.00987,439.29021 245.10713,438.68749 234,438.69641 C 215.05274,438.71161 210.21403,439.72851 199.78888,445.88618 C 195.1316,448.63702 189.33636,451.64928 186.91055,452.58008 C 184.48475,453.51089 180.925,455.4657 179,456.92411 C 174.48923,460.34154 164.32297,467 163.61595,467 C 163.31614,467 161.1424,468.36234 158.78542,470.02742 C 156.42844,471.69251 151.8,474.92503 148.5,477.2108 C 145.2,479.49657 139.575,483.68047 136,486.50834 C 132.425,489.33622 128.75246,492.0662 127.8388,492.57497 C 126.92514,493.08374 124.634,494.90848 122.74738,496.62995 C 120.86076,498.35142 118.2333,500.32961 116.90858,501.02593 C 115.58386,501.72225 114.12407,502.92999 113.6646,503.7098 C 113.20512,504.48961 112.0325,505.43642 111.05876,505.81382 C 109.43085,506.44476 106.69905,508.72461 91.364267,522.25 C 88.402275,524.8625 85.645125,527 85.237268,527 C 84.82941,527 82.321314,529.025 79.663719,531.5 C 77.006125,533.975 74.582414,536 74.277695,536 C 73.972977,536 71.810228,537.6875 69.471586,539.75 C 65.559407,543.20024 62.320042,545.66814 48.583189,555.66374 C 43.272771,559.52786 37.125647,562.45898 36.223741,561.55707 C 35.565976,560.89931 37.637686,556.79627 39.909946,554.25652 C 40.784476,553.27904 43.137259,550.45895 45.138353,547.98964 C 50.295527,541.62581 60.563812,530.2857 76,513.90659 C 78.475,511.2804 82.525,506.93254 85,504.24467 C 87.475,501.5568 93.825434,494.66466 99.112076,488.92881 C 104.39872,483.19297 109.86288,477.15 111.25466,475.5 C 112.64644,473.85 116.196,469.9787 119.14258,466.8971 C 122.08916,463.81551 126.075,459.33599 128,456.94261 C 129.925,454.54924 132.9625,451.12304 134.75,449.32884 C 136.5375,447.53465 138,445.60167 138,445.03333 C 138,444.465 138.3375,443.99649 138.75,443.9922 C 139.56291,443.98374 142,439.21243 142,437.62938 C 142,437.09483 142.71497,435.86745 143.58882,434.90185 C 144.46267,433.93626 145.55056,431.65082 146.00635,429.82311 C 147.80123,422.6257 150.86772,413.08397 152.41704,409.87551 C 156.75454,400.89312 172.86785,388.67947 185.5,384.79913 C 197.36378,381.15481 200.01289,380.78038 210.68846,381.23895 C 219.34818,381.61092 223.98787,382.44413 234,385.42531 C 240.875,387.47239 246.9275,389.56414 247.45,390.07364 C 247.9725,390.58314 249.00674,391 249.74831,391 C 250.48987,391 252.9594,391.9 255.23614,393 C 257.51287,394.1 260.10114,395 260.98783,395 C 261.87452,395 263.0275,395.38814 263.55,395.86253 C 265.48323,397.61778 284.83794,402.9072 295.25928,404.52832 C 307.06501,406.3648 316.83297,405.99438 325.42584,403.38435 C 337.18828,399.81158 345.78021,396.56313 350,394.09329 C 352.475,392.64468 356.20052,390.57174 358.27892,389.48675 C 360.35733,388.40176 364.18233,385.5932 366.77892,383.2455 C 369.37552,380.89781 374.31026,377.06965 377.74502,374.73848 C 381.17978,372.40732 383.99228,370.1625 383.99502,369.75 C 383.99776,369.3375 384.49964,369 385.1103,369 C 386.65603,369 396,362.8491 396,361.83159 C 396,361.37421 396.48142,361 397.06982,361 C 397.65823,361 400.10181,359.65 402.5,358 C 404.89819,356.35 407.06991,355 407.32603,355 C 408.25821,355 427.50948,342.63686 427.83333,341.83023 C 428.01667,341.3736 429.02917,341 430.08333,341 C 431.1375,341 432,340.65233 432,340.2274 C 432,339.80248 433.62644,338.57891 435.61431,337.50838 C 437.60217,336.43784 441.57941,332.96423 444.45261,329.78924 C 449.89304,323.77737 450.63451,321.84293 452.99607,307.5 C 454.53241,298.16901 455.1283,271.37009 453.99667,262.5 C 453.43533,258.1 452.70589,252.025 452.3757,249 C 452.0455,245.975 451.37589,242.74208 450.88767,241.81574 C 450.39945,240.8894 450,239.00346 450,237.62476 C 450,236.24606 449.55,234.83992 449,234.5 C 448.45,234.16008 448,232.86805 448,231.62881 C 448,230.38958 447.1,227.51287 446,225.23614 C 444.9,222.9594 444,220.63614 444,220.07335 C 444,219.51055 442.65,216.10255 441,212.5 C 439.35,208.89745 438,205.51118 438,204.97496 C 438,204.43873 437.6625,203.993 437.25,203.98445 C 436.8375,203.9759 435.375,201.61384 434,198.73543 C 430.6528,191.72846 428.31419,188.75244 422.8135,184.5 C 420.28546,182.54564 415.40746,175 416.67207,175 C 417.02292,175 416.55465,174.16538 415.63148,173.14528 C 414.43354,171.82158 414.00673,169.74586 414.14071,165.89528 C 414.3205,160.72791 414.82866,159.45184 419.62052,152.13472 C 421.02083,149.99645 421.78029,147.15411 421.85663,143.76595 C 421.9202,140.94404 422.32823,138.37978 422.76335,138.0676 C 423.19848,137.75542 424.33735,134.96128 425.29418,131.85839 C 426.251,128.75551 427.70125,125.66291 428.51693,124.98595 C 429.33262,124.30899 430,122.46021 430,120.87756 C 430,119.2949 430.375,118 430.83333,118 C 431.29167,118 431.66667,117.39701 431.66667,116.66001 C 431.66667,115.92302 432.68219,113.11052 433.92339,110.41001 C 435.16459,107.70951 436.64209,104.375 437.20673,103 C 439.20231,98.140386 443.16917,91.067927 447.12053,85.32482 C 448.70424,83.022976 450,80.658228 450,80.069825 C 450,79.481421 450.35298,79 450.78439,79 C 451.21581,79 452.35658,77.666374 453.31943,76.036387 C 454.28229,74.406399 455.61884,72.493899 456.28954,71.786387 C 456.96024,71.078874 459.53197,68.025 462.0045,65 C 464.47702,61.975 467.51493,58.677929 468.7554,57.673175 C 469.99586,56.668421 471.57086,55.303611 472.2554,54.640263 C 477.36902,49.684885 483.05984,47.669774 484.65438,50.249798 C 485.76137,52.040936 485.21106,69.188944 484.00798,70.392018 C 483.45359,70.946408 482.99812,72.3225 482.99581,73.45 C 482.99351,74.5775 481.86851,77.713765 480.49581,80.419478 C 479.12312,83.125191 478,85.882591 478,86.547033 C 478,87.211476 477.325,88.315311 476.5,89 C 475.675,89.684689 475,91.020652 475,91.968807 C 475,94.299099 472.60119,98.874801 469.52856,102.40554 C 468.13785,104.00359 467,105.63769 467,106.03688 C 467,106.43607 465.56457,108.16608 463.81016,109.88134 C 461.42076,112.21742 461.04436,113 462.31016,113 C 463.23957,113 464,112.60459 464,112.12132 C 464,111.63805 465.35,110.68345 467,110 C 468.65,109.31655 470,108.45898 470,108.09429 C 470,107.7296 471.2375,106.69883 472.75,105.8037 C 474.2625,104.90856 476.625,103.23911 478,102.09381 C 486.65974,94.88072 489.0576,92.751825 496.12707,86 C 516.71391,66.338166 520.15182,64.339346 524.82569,69.314451 C 526.02156,70.587399 527,72.360842 527,73.255434 C 527,74.150027 527.43521,75.15094 527.96713,75.479687 C 529.47542,76.411862 528.45092,89.247491 526.54819,93.257213 C 524.23773,98.126131 515.64559,106.4147 510.6073,108.63487 C 508.34829,109.63033 506.275,110.68264 506,110.97333 C 505.10758,111.91666 496.60608,115.74518 492.5,117.05284 C 487.15797,118.75412 489.50371,119.37797 496.42899,118.09776 C 499.98057,117.44121 515.24095,117.28601 538.74201,117.66741 C 569.59574,118.16813 575.78053,118.50807 577.24647,119.78377 C 578.45696,120.83717 578.68691,121.67232 577.99575,122.50512 C 576.47939,124.33223 563.7396,125.01629 552,123.90095 C 539.04612,122.67025 525.86846,122.73154 524.57148,124.02852 C 523.94284,124.65716 525.52333,125.00616 529.05,125.01746 C 537.44874,125.04436 558.14232,128.72864 576.69546,133.50024 C 585.48415,135.76056 608.45638,144.37051 610.45,146.15138 C 610.9725,146.61812 612.19427,147 613.16505,147 C 614.13583,147 616.85833,147.62709 619.21505,148.39352 C 621.57177,149.15996 627.55,151.0045 632.5,152.49251 C 652.50995,158.50763 668.24856,164.29737 683.29589,171.17872 C 694.14978,176.14236 693.77535,175.90277 692.20014,176.87631 C 689.62898,178.46537 691.55011,182.28546 695.99536,184.42294 C 698.37112,185.56532 700.80657,187.31386 701.40747,188.30857 C 702.5209,190.15174 702.37362,190.35686 697.67993,193.5 C 696.85861,194.05 695.94363,195.4 695.64665,196.5 C 695.19708,198.16517 696.28686,199.08595 702.15613,202 C 717.1916,209.46501 720.99149,211.56499 722.71458,213.36149 C 724.442,215.16251 724.39779,215.20923 721.35368,214.7999 C 719.0513,214.4903 718.34237,214.72862 718.71067,215.68841 C 718.98749,216.40978 719.77814,217 720.46768,217 C 722.96481,217 733,224.41513 733,226.26029 C 733,227.27931 734.38095,228.84935 736.11031,229.79651 C 743.83257,234.02592 745.50746,235.55548 745.15243,238.054 C 744.96126,239.3993 744.3641,241.03787 743.8254,241.69527 C 743.13982,242.53193 743.75481,243.73206 745.87515,245.69527 C 747.92257,247.59097 749.00089,249.63437 749.20218,252 C 749.49018,255.38458 749.37633,255.51024 745.75,255.81037 C 743.6875,255.98107 742.01643,256.43107 742.03651,256.81037 C 742.05659,257.18966 744.08159,258.77276 746.53651,260.32836 C 750.03502,262.54525 751,263.74512 751,265.87836 C 751,267.37526 751.54,269.14 752.2,269.8 C 752.86,270.46 753.0483,271 752.61844,271 C 752.18858,271 752.71578,272.4625 753.78998,274.25 C 756.27958,278.39273 757.3413,282.86352 756.18749,284.34565 C 753.59746,287.67272 754.13205,290.05901 758.04798,292.65045 C 763.3981,296.19099 766.52832,300.75775 766.5128,305 C 766.50066,308.31992 766.30706,308.51597 762.75,308.81037 C 759.64714,309.06717 759.00264,309.4986 759.01531,311.31037 C 759.02373,312.51466 759.44799,314.15991 759.95811,314.96646 C 760.54994,315.90222 760.48736,316.91277 759.78518,317.75884 C 758.98156,318.72714 758.99699,319.39699 759.84238,320.24238 C 760.47907,320.87907 761,322.40844 761,323.64098 C 761,324.87352 761.48068,326.17904 762.06817,326.54213 C 762.65567,326.90523 762.87046,327.89519 762.54549,328.74206 C 761.86382,330.51846 764.35098,334.69678 767.62453,337.27464 C 772.9837,341.49487 774.26071,350.71973 769.81512,353.09894 C 767.93233,354.10658 767.95566,354.22957 770.4721,356.56172 C 772.65973,358.58915 772.90254,359.31359 771.97519,361.04637 C 770.4735,363.85229 768.37411,364.49149 765.2841,363.08359 C 763.4797,362.26144 762.37837,362.22163 761.64787,362.95213 C 760.91738,363.68262 760.99878,364 761.91663,364 C 762.69894,364 763.03955,364.74077 762.75592,365.82535 C 762.39795,367.19426 763.52697,368.35245 767.27103,370.45709 C 770.01688,372.00061 773.94367,374.94367 775.99724,376.99724 C 780.14312,381.14312 776.48393,380.46884 814.5,384.09208 C 835.67177,386.10992 839.33291,386.72546 845.5,389.30406 C 848.25,390.45389 850.725,391.69522 851,392.06255 C 851.275,392.42989 852.625,393.06971 854,393.48437 C 859.65785,395.19063 864.95182,398.13378 867.64268,401.06894 C 869.21421,402.78315 872.3,405.02345 874.5,406.04738 C 879.37945,408.3184 881.41603,409.94606 882.28929,412.27268 C 882.65523,413.24766 883.75234,414.29676 884.72732,414.60403 C 896.7744,418.4007 902.838,422.78434 901.56977,426.78018 C 901.18813,427.98262 901.87738,429.7091 903.48562,431.57915 C 906.39259,434.95933 906.56997,435.84405 904.5,436.63837 C 902.09214,437.56236 902.66012,438.41513 908.92241,443.27824 C 913.27567,446.65885 914.71592,448.3703 914.35834,449.73773 C 913.94377,451.32304 914.80526,451.77799 920.18593,452.81529 C 923.65867,453.48477 928.525,454.43813 931,454.93386 C 933.475,455.42959 936.85,456.09569 938.5,456.41407 C 945.55393,457.77519 957.7371,458.17129 961.5,457.16184 C 967.03903,455.67593 982.30976,453.84461 989.36429,453.82025 C 996.25587,453.79645 999.4057,455.73715 996.76366,458.3792 C 995.92652,459.21633 994.06224,460.19726 992.6208,460.55904 C 988.96185,461.47738 989.34686,462.99284 993.25,463.03562 C 997.5422,463.08267 1005.1262,464.99926 1018.2759,469.36004 C 1026.6685,472.14326 1030.1517,473.8809 1034.0254,477.2168 C 1036.7609,479.57256 1038.9992,481.85922 1038.9995,482.29827 C 1038.9998,482.73732 1037.5375,483.71488 1035.75,484.47063 L 1032.5,485.8447 L 1035.5,486.95882 C 1039.9962,488.62857 1051.113,494.37939 1051.7118,495.34535 C 1052.0001,495.8103 1051.7149,497.16414 1051.0782,498.3539 C 1049.9792,500.40736 1049.3265,500.50376 1038.2102,500.25432 C 1010.8391,499.64013 986.30422,498.25035 983.6849,497.16571 C 982.1366,496.52457 977.98055,496 974.44925,496 C 967.38487,496 962.29611,495.03247 951,491.54157 C 941.0372,488.46271 933.45094,486.45279 923,484.12319 C 920.525,483.57149 914.45,482.21508 909.5,481.10893 C 887.59796,476.21462 887.18723,476.20412 885.68216,480.5 C 885.48946,481.05 882.95999,481.40305 880.06109,481.28455 L 874.79038,481.06909 L 875.45472,484.61035 C 876.50044,490.18449 875.13452,491 864.75256,491 L 855.75,491 L 856.32758,493.88792 C 857.24932,498.49659 854.74778,500.00902 848,498.92276 C 844.975,498.43579 840.925,497.82492 839,497.56525 C 829.98131,496.34871 827.04936,495.64281 821,493.23151 C 817.425,491.80651 814.0725,490.27146 813.55,489.8203 C 813.0275,489.36913 811.98861,489 811.24136,489 C 810.49411,489 808.22161,487.71539 806.19136,486.14531 C 804.16111,484.57523 800.925,482.69981 799,481.97771 C 797.075,481.25561 795.05,480.33469 794.5,479.93122 C 793.95,479.52775 789.45,477.06921 784.5,474.4678 C 779.55,471.86639 772.575,468.09457 769,466.08598 C 765.425,464.07739 761.72399,462.59213 760.77554,462.7854 C 759.82708,462.97868 758.03062,464.95247 756.78339,467.17162 C 755.44952,469.54491 752.99482,471.98232 750.82239,473.09061 C 747.20754,474.93477 746.99493,474.93492 740.81454,473.09783 C 728.34485,469.39126 727.10757,469.77262 736.2415,474.50732 C 743.27111,478.15122 744.14817,478.95778 743.45519,481.14118 C 743.13071,482.16353 743.23939,483 743.69671,483 C 744.92151,483 747.86563,490.28924 748.63142,495.21764 C 749.06726,498.0226 750.79811,501.48758 753.64841,505.26117 C 756.04179,508.42981 758,511.66995 758,512.46148 C 758,513.25301 758.74508,514.31759 759.65574,514.82722 C 761.15502,515.66626 761.09231,516.07256 758.99213,519.12691 C 757.71649,520.98211 755.82586,523.45087 754.79074,524.61305 C 753.75562,525.77522 753.04174,527.18352 753.20435,527.7426 C 753.77747,529.7131 747.90357,534.12859 745.13721,533.80678 C 742.85415,533.5412 742.54601,533.82576 742.84264,535.92582 C 743.07423,537.56538 742.42599,538.92853 740.84264,540.13153 C 738.81588,541.67142 738.66855,542.18524 739.75,543.94214 C 740.4375,545.05904 741,547.76314 741,549.95125 C 741,554.16664 739.20135,556 735.06574,556 C 733.54933,556 733,556.64109 733,558.41079 C 733,560.24992 731.9922,561.32111 728.75,562.92811 C 723.40642,565.57668 718.69178,569.69228 719.50113,571.00183 C 719.84043,571.55082 719.46823,572 718.67403,572 C 717.87982,572 716.49289,573.125 715.59196,574.5 C 714.43765,576.26169 713.05364,577 710.90552,577 C 706.54169,577 704.6578,579.15485 706.15289,582.4362 C 706.79536,583.84629 707.71227,585 708.19045,585 C 708.66863,585 708.06178,586.35 706.84188,588 C 705.27066,590.12518 703.78425,591 701.74455,591 C 699.36292,591 698.97028,591.331 699.47301,592.91496 C 701.21595,598.40649 696.24093,603.27273 688.88369,603.27273 C 685.63415,603.27273 685.12807,603.60963 684.62898,606.10511 C 683.6251,611.1245 677.19856,615.65344 672.38553,614.73337 C 668.80143,614.04822 667,614.79035 667,616.952 C 667,619.44251 663.72317,622.06056 659.84065,622.67203 C 655.91165,623.29081 653,624.70037 653,625.98366 C 653,626.48597 651.9875,628.03449 650.75,629.42482 C 649.5125,630.81514 647.375,633.57834 646,635.56527 C 644.625,637.5522 642.17067,640.76434 640.54592,642.70338 C 638.24711,645.44687 637.65135,647.05297 637.86009,649.94401 C 638.08509,653.06031 637.40907,654.54209 633.66604,659.13706 C 630.19704,663.39562 629.31548,665.1995 629.70571,667.24087 C 630.28701,670.28173 624.73932,682.9376 622.75126,683.10596 C 619.6099,683.37199 615.57097,682.71869 612.54787,681.45555 L 609.2513,680.07816 L 608.75825,684.45241 C 608.39617,687.66481 607.19127,690.11133 604.22194,693.66333 C 601.02562,697.48684 600.26366,699.12842 600.58443,701.5 C 600.8076,703.15 601.20076,707.31579 601.45812,710.75732 C 601.90012,716.66784 601.74798,717.22206 598.71303,720.75732 C 596.94586,722.81579 595.18008,724.64414 594.78906,724.82031 C 593.9565,725.19542 594.62272,729.34597 596.73075,736.91701 C 598.37371,742.81778 597.97196,750.31621 595.80616,754.17365 C 593.75358,757.82942 590.7702,761 589.38285,761 C 587.84219,761 580.78782,756.99856 579.76531,755.54465 C 579.36123,754.97009 579.02373,756.1875 579.01531,758.25 C 579.00689,760.3125 579.38748,762 579.86107,762 C 580.33961,762 580.34682,763.66595 579.87732,765.75 C 579.41266,767.8125 578.81035,770.66283 578.53884,772.08406 C 577.92879,775.27745 572.51789,782.24265 569.87922,783.23119 C 568.1037,783.89636 567.97784,784.6638 568.48524,791.73119 C 568.79201,796.00404 569.54711,802.49113 570.16324,806.14697 C 570.77937,809.8028 571.05828,815.94136 570.78304,819.78822 C 570.36989,825.5626 569.82192,827.27934 567.6413,829.63104 C 566.18859,831.19773 565,832.82166 565,833.23978 C 565,833.6579 564.09373,834.90627 562.98607,836.01393 C 561.04703,837.95297 560.8704,837.96291 558.23607,836.28131 C 556.73123,835.32071 554.92748,833.76156 554.22772,832.81653 C 553.52797,831.87151 552.29047,830.43333 551.47772,829.62058 C 550.66498,828.80783 550,827.85081 550,827.49387 C 550,826.02551 537.73966,806 536.84067,806 C 535.77019,806 536.68556,809.92287 538.11239,811.45 C 538.60058,811.9725 539,813.29254 539,814.38342 C 539,815.4743 539.83157,818.8718 540.84794,821.93342 C 543.3439,829.45207 545,836.49065 545,839.58009 C 545,840.98336 545.42421,842.92412 545.94268,843.89289 C 546.46115,844.86167 546.99266,848.0059 547.1238,850.88008 C 547.25495,853.75425 547.66382,856.29223 548.0324,856.52002 C 548.40098,856.74782 548.79089,862.0115 548.89887,868.2171 C 549.00685,874.42269 549.43526,883.01564 549.85091,887.31254 C 550.26655,891.60944 550.24513,895.3485 549.80331,895.62156 C 549.36149,895.89462 549,898.60912 549,901.65378 C 549,908.76492 545.6368,919.83368 542.42299,923.29962 C 539.3972,926.5628 538.66062,926.62546 536.06597,923.84044 C 533.68671,921.2866 526,905.87362 526,903.65669 C 526,902.81043 525.55,901.83992 525,901.5 C 524.45,901.16008 524,900.00242 524,898.92741 C 524,897.03946 523.63882,896.06612 521.15613,891.26357 C 520.52026,890.03353 520,888.21103 520,887.21357 C 520,886.21611 519.64186,884.9725 519.20414,884.45 C 518.42834,883.52394 517.64478,881.2247 514.9613,872 C 514.24132,869.525 513.28049,867.0725 512.82612,866.55 C 512.37175,866.0275 512,864.43 512,863 C 512,861.57 511.58612,859.9725 511.08026,859.45 C 510.25857,858.60128 508.22758,852.31536 503.18042,835 C 502.29868,831.975 501.22237,829.35 500.78863,829.16667 C 500.35488,828.98333 500,827.52083 500,825.91667 C 500,824.3125 499.57989,823 499.06642,823 C 498.55295,823 497.94538,821.7625 497.71625,820.25 C 497.32851,817.69044 497.28929,817.72507 497.14983,820.75 C 497.06742,822.5375 497.45,824 498,824 C 498.55,824 499,825.35 499,827 C 499,828.65 499.35643,830 499.79207,830 C 500.2277,830 500.63182,831.2375 500.69011,832.75 C 500.74839,834.2625 501.52733,839.55 502.42109,844.5 C 503.31484,849.45 504.46229,857.65113 504.97098,862.72474 C 505.47967,867.79835 506.13212,873.64835 506.42086,875.72474 C 506.91171,879.25448 507.90694,901.29387 508.31862,917.75082 C 508.41838,921.73878 508.1625,925.00128 507.75,925.00082 C 507.3375,925.00037 507.00297,926.9125 507.00661,929.25 C 507.02328,939.96987 503.08751,959.6826 499.87628,964.96304 C 497.95579,968.12104 497.26894,968.46685 495.36441,967.23469 z M 495.68311,813.8125 C 495.36389,813.01477 495.12693,813.25172 495.07895,814.41667 C 495.03553,815.47083 495.27188,816.06146 495.60417,815.72917 C 495.93646,815.39688 495.97198,814.53437 495.68311,813.8125 z M 943.82308,473.48975 C 943.54244,473.20911 936.15494,471.15947 927.40641,468.935 C 916.39865,466.13608 910.45899,465.08284 908.11975,465.515 C 905.96377,465.91332 905.08666,466.48666 905.69801,467.09801 C 906.55581,467.95581 929.08488,472.26895 938,473.28215 C 939.925,473.50093 942.1375,473.75194 942.91667,473.83996 C 943.69583,473.92798 944.10372,473.77039 943.82308,473.48975 z M 987.72917,462.39583 C 987.39688,462.06354 986.53437,462.02802 985.8125,462.31689 C 985.01477,462.63611 985.25172,462.87307 986.41667,462.92105 C 987.47083,462.96447 988.06146,462.72812 987.72917,462.39583 z "
     id="path2161" />
</svg>
